<svg id="visual" viewBox="0 0 960 540" preserveAspectRatio="none" xmlns="http://www.w3.org/2000/svg" xmlns:xlink="http://www.w3.org/1999/xlink" version="1.1"><rect x="0" y="0" width="960" height="540" fill="#1E1E1E"></rect><defs><linearGradient id="grad1_0" x1="43.8%" y1="100%" x2="100%" y2="0%"><stop offset="14.444444444444446%" stop-color="#ff886e" stop-opacity="1"></stop><stop offset="85.55555555555554%" stop-color="#ff886e" stop-opacity="1"></stop></linearGradient></defs><defs><linearGradient id="grad1_1" x1="43.8%" y1="100%" x2="100%" y2="0%"><stop offset="14.444444444444446%" stop-color="#ff886e" stop-opacity="1"></stop><stop offset="85.55555555555554%" stop-color="#dc7862" stop-opacity="1"></stop></linearGradient></defs><defs><linearGradient id="grad1_2" x1="43.8%" y1="100%" x2="100%" y2="0%"><stop offset="14.444444444444446%" stop-color="#b96856" stop-opacity="1"></stop><stop offset="85.55555555555554%" stop-color="#dc7862" stop-opacity="1"></stop></linearGradient></defs><defs><linearGradient id="grad1_3" x1="43.8%" y1="100%" x2="100%" y2="0%"><stop offset="14.444444444444446%" stop-color="#b96856" stop-opacity="1"></stop><stop offset="85.55555555555554%" stop-color="#98584a" stop-opacity="1"></stop></linearGradient></defs><defs><linearGradient id="grad1_4" x1="43.8%" y1="100%" x2="100%" y2="0%"><stop offset="14.444444444444446%" stop-color="#77493f" stop-opacity="1"></stop><stop offset="85.55555555555554%" stop-color="#98584a" stop-opacity="1"></stop></linearGradient></defs><defs><linearGradient id="grad1_5" x1="43.8%" y1="100%" x2="100%" y2="0%"><stop offset="14.444444444444446%" stop-color="#77493f" stop-opacity="1"></stop><stop offset="85.55555555555554%" stop-color="#583b33" stop-opacity="1"></stop></linearGradient></defs><defs><linearGradient id="grad1_6" x1="43.8%" y1="100%" x2="100%" y2="0%"><stop offset="14.444444444444446%" stop-color="#3b2c29" stop-opacity="1"></stop><stop offset="85.55555555555554%" stop-color="#583b33" stop-opacity="1"></stop></linearGradient></defs><defs><linearGradient id="grad1_7" x1="43.8%" y1="100%" x2="100%" y2="0%"><stop offset="14.444444444444446%" stop-color="#3b2c29" stop-opacity="1"></stop><stop offset="85.55555555555554%" stop-color="#1e1e1e" stop-opacity="1"></stop></linearGradient></defs><defs><linearGradient id="grad2_0" x1="0%" y1="100%" x2="56.3%" y2="0%"><stop offset="14.444444444444446%" stop-color="#ff886e" stop-opacity="1"></stop><stop offset="85.55555555555554%" stop-color="#ff886e" stop-opacity="1"></stop></linearGradient></defs><defs><linearGradient id="grad2_1" x1="0%" y1="100%" x2="56.3%" y2="0%"><stop offset="14.444444444444446%" stop-color="#dc7862" stop-opacity="1"></stop><stop offset="85.55555555555554%" stop-color="#ff886e" stop-opacity="1"></stop></linearGradient></defs><defs><linearGradient id="grad2_2" x1="0%" y1="100%" x2="56.3%" y2="0%"><stop offset="14.444444444444446%" stop-color="#dc7862" stop-opacity="1"></stop><stop offset="85.55555555555554%" stop-color="#b96856" stop-opacity="1"></stop></linearGradient></defs><defs><linearGradient id="grad2_3" x1="0%" y1="100%" x2="56.3%" y2="0%"><stop offset="14.444444444444446%" stop-color="#98584a" stop-opacity="1"></stop><stop offset="85.55555555555554%" stop-color="#b96856" stop-opacity="1"></stop></linearGradient></defs><defs><linearGradient id="grad2_4" x1="0%" y1="100%" x2="56.3%" y2="0%"><stop offset="14.444444444444446%" stop-color="#98584a" stop-opacity="1"></stop><stop offset="85.55555555555554%" stop-color="#77493f" stop-opacity="1"></stop></linearGradient></defs><defs><linearGradient id="grad2_5" x1="0%" y1="100%" x2="56.3%" y2="0%"><stop offset="14.444444444444446%" stop-color="#583b33" stop-opacity="1"></stop><stop offset="85.55555555555554%" stop-color="#77493f" stop-opacity="1"></stop></linearGradient></defs><defs><linearGradient id="grad2_6" x1="0%" y1="100%" x2="56.3%" y2="0%"><stop offset="14.444444444444446%" stop-color="#583b33" stop-opacity="1"></stop><stop offset="85.55555555555554%" stop-color="#3b2c29" stop-opacity="1"></stop></linearGradient></defs><defs><linearGradient id="grad2_7" x1="0%" y1="100%" x2="56.3%" y2="0%"><stop offset="14.444444444444446%" stop-color="#1e1e1e" stop-opacity="1"></stop><stop offset="85.55555555555554%" stop-color="#3b2c29" stop-opacity="1"></stop></linearGradient></defs><g transform="translate(960, 540)"><path d="M-405 0C-407.5 -33.6 -409.9 -67.2 -387 -88.3C-364.2 -109.5 -316 -118.2 -306.3 -147.5C-296.7 -176.8 -325.5 -226.8 -316.6 -252.5C-307.8 -278.3 -261.1 -279.8 -227 -284.6C-192.8 -289.4 -171.1 -297.4 -149.7 -310.8C-128.2 -324.3 -107 -343.1 -82.1 -359.7C-57.2 -376.3 -28.6 -390.7 0 -405L0 0Z" fill="#2c2523"></path><path d="M-354.4 0C-356.5 -29.4 -358.7 -58.8 -338.7 -77.3C-318.7 -95.8 -276.5 -103.4 -268 -129.1C-259.6 -154.7 -284.8 -198.4 -277.1 -220.9C-269.3 -243.5 -228.5 -244.8 -198.6 -249C-168.7 -253.2 -149.7 -260.2 -131 -272C-112.2 -283.7 -93.6 -300.3 -71.8 -314.8C-50 -329.3 -25 -341.8 0 -354.4L0 0Z" fill="#49332e"></path><path d="M-303.7 0C-305.6 -25.2 -307.4 -50.4 -290.3 -66.3C-273.1 -82.1 -237 -88.7 -229.7 -110.6C-222.5 -132.6 -244.1 -170.1 -237.5 -189.4C-230.8 -208.7 -195.8 -209.9 -170.2 -213.4C-144.6 -217 -128.4 -223 -112.3 -233.1C-96.2 -243.2 -80.3 -257.4 -61.6 -269.8C-42.9 -282.3 -21.4 -293 0 -303.7L0 0Z" fill="#684239"></path><path d="M-253.1 0C-254.7 -21 -256.2 -42 -241.9 -55.2C-227.6 -68.4 -197.5 -73.9 -191.5 -92.2C-185.4 -110.5 -203.5 -141.7 -197.9 -157.8C-192.3 -173.9 -163.2 -174.9 -141.8 -177.9C-120.5 -180.9 -107 -185.9 -93.6 -194.3C-80.2 -202.7 -66.9 -214.5 -51.3 -224.8C-35.7 -235.2 -17.9 -244.2 0 -253.1L0 0Z" fill="#875144"></path><path d="M-202.5 0C-203.7 -16.8 -205 -33.6 -193.5 -44.2C-182.1 -54.7 -158 -59.1 -153.2 -73.8C-148.3 -88.4 -162.8 -113.4 -158.3 -126.3C-153.9 -139.1 -130.6 -139.9 -113.5 -142.3C-96.4 -144.7 -85.6 -148.7 -74.8 -155.4C-64.1 -162.1 -53.5 -171.6 -41.1 -179.9C-28.6 -188.2 -14.3 -195.3 0 -202.5L0 0Z" fill="#a86050"></path><path d="M-151.9 0C-152.8 -12.6 -153.7 -25.2 -145.1 -33.1C-136.6 -41.1 -118.5 -44.3 -114.9 -55.3C-111.3 -66.3 -122.1 -85 -118.7 -94.7C-115.4 -104.3 -97.9 -104.9 -85.1 -106.7C-72.3 -108.5 -64.2 -111.5 -56.1 -116.6C-48.1 -121.6 -40.1 -128.7 -30.8 -134.9C-21.4 -141.1 -10.7 -146.5 0 -151.9L0 0Z" fill="#ca705c"></path><path d="M-101.2 0C-101.9 -8.4 -102.5 -16.8 -96.8 -22.1C-91 -27.4 -79 -29.6 -76.6 -36.9C-74.2 -44.2 -81.4 -56.7 -79.2 -63.1C-76.9 -69.6 -65.3 -70 -56.7 -71.1C-48.2 -72.3 -42.8 -74.3 -37.4 -77.7C-32.1 -81.1 -26.8 -85.8 -20.5 -89.9C-14.3 -94.1 -7.1 -97.7 0 -101.2L0 0Z" fill="#ed8068"></path><path d="M-50.6 0C-50.9 -4.2 -51.2 -8.4 -48.4 -11C-45.5 -13.7 -39.5 -14.8 -38.3 -18.4C-37.1 -22.1 -40.7 -28.3 -39.6 -31.6C-38.5 -34.8 -32.6 -35 -28.4 -35.6C-24.1 -36.2 -21.4 -37.2 -18.7 -38.9C-16 -40.5 -13.4 -42.9 -10.3 -45C-7.1 -47 -3.6 -48.8 0 -50.6L0 0Z" fill="#ff886e"></path></g><g transform="translate(0, 0)"><path d="M405 0C380.1 23.9 355.2 47.7 355.8 81.2C356.5 114.7 382.7 157.9 364.9 175.7C347.1 193.5 285.1 186 264.3 210.7C243.4 235.4 263.5 292.4 248.8 312C234 331.5 184.4 313.8 151.9 315.3C119.3 316.9 103.7 337.7 81.2 355.8C58.7 374 29.4 389.5 0 405L0 0Z" fill="#2c2523"></path><path d="M354.4 0C332.6 20.9 310.8 41.7 311.4 71.1C311.9 100.4 334.9 138.2 319.3 153.8C303.7 169.4 249.5 162.8 231.2 184.4C213 206 230.6 255.8 217.7 273C204.8 290.1 161.4 274.6 132.9 275.9C104.4 277.3 90.7 295.5 71.1 311.4C51.4 327.3 25.7 340.8 0 354.4L0 0Z" fill="#49332e"></path><path d="M303.8 0C285.1 17.9 266.4 35.8 266.9 60.9C267.4 86 287 118.4 273.7 131.8C260.3 145.2 213.9 139.5 198.2 158.1C182.5 176.6 197.6 219.3 186.6 234C175.5 248.7 138.3 235.4 113.9 236.5C89.5 237.7 77.8 253.3 60.9 266.9C44.1 280.5 22 292.1 0 303.8L0 0Z" fill="#684239"></path><path d="M253.1 0C237.6 14.9 222 29.8 222.4 50.8C222.8 71.7 239.2 98.7 228.1 109.8C216.9 121 178.2 116.3 165.2 131.7C152.1 147.2 164.7 182.7 155.5 195C146.3 207.2 115.3 196.1 94.9 197.1C74.5 198 64.8 211.1 50.8 222.4C36.7 233.8 18.4 243.4 0 253.1L0 0Z" fill="#875144"></path><path d="M202.5 0C190 11.9 177.6 23.9 177.9 40.6C178.3 57.4 191.4 78.9 182.4 87.9C173.5 96.8 142.6 93 132.1 105.4C121.7 117.7 131.8 146.2 124.4 156C117 165.8 92.2 156.9 75.9 157.7C59.6 158.4 51.8 168.8 40.6 177.9C29.4 187 14.7 194.8 0 202.5L0 0Z" fill="#a86050"></path><path d="M151.9 0C142.5 8.9 133.2 17.9 133.4 30.5C133.7 43 143.5 59.2 136.8 65.9C130.1 72.6 106.9 69.8 99.1 79C91.3 88.3 98.8 109.6 93.3 117C87.8 124.3 69.2 117.7 56.9 118.3C44.7 118.8 38.9 126.6 30.5 133.4C22 140.3 11 146.1 0 151.9L0 0Z" fill="#ca705c"></path><path d="M101.3 0C95 6 88.8 11.9 89 20.3C89.1 28.7 95.7 39.5 91.2 43.9C86.8 48.4 71.3 46.5 66.1 52.7C60.8 58.9 65.9 73.1 62.2 78C58.5 82.9 46.1 78.5 38 78.8C29.8 79.2 25.9 84.4 20.3 89C14.7 93.5 7.3 97.4 0 101.3L0 0Z" fill="#ed8068"></path><path d="M50.6 0C47.5 3 44.4 6 44.5 10.2C44.6 14.3 47.8 19.7 45.6 22C43.4 24.2 35.6 23.3 33 26.3C30.4 29.4 32.9 36.5 31.1 39C29.3 41.4 23.1 39.2 19 39.4C14.9 39.6 13 42.2 10.2 44.5C7.3 46.8 3.7 48.7 0 50.6L0 0Z" fill="#ff886e"></path></g></svg>