<?xml version="1.0" encoding="utf-8"?>
<!-- Generator: Adobe Illustrator 25.4.1, SVG Export Plug-In . SVG Version: 6.00 Build 0)  -->
<svg version="1.1" id="Layer_1" xmlns="http://www.w3.org/2000/svg" xmlns:xlink="http://www.w3.org/1999/xlink" x="0px" y="0px"
	 viewBox="0 0 624.4 428.8" style="enable-background:new 0 0 624.4 428.8;" xml:space="preserve">
<style type="text/css">
	.st0{clip-path:url(#SVGID_00000181059218658147587580000012370016603304752314_);fill:#3F3D56;}
	.st1{clip-path:url(#SVGID_00000181059218658147587580000012370016603304752314_);fill:#2266FF;}
	.st2{clip-path:url(#SVGID_00000181059218658147587580000012370016603304752314_);fill:#E6E6E6;}
	.st3{clip-path:url(#SVGID_00000181059218658147587580000012370016603304752314_);fill:#F2F2F2;}
</style>
<g>
	<defs>
		<rect id="SVGID_1_" y="0" width="624.4" height="428.8"/>
	</defs>
	<clipPath id="SVGID_00000115512599321335474520000015877527898802431665_">
		<use xlink:href="#SVGID_1_"  style="overflow:visible;"/>
	</clipPath>
	<path style="clip-path:url(#SVGID_00000115512599321335474520000015877527898802431665_);fill:#3F3D56;" d="M615.7,0H8.7
		C3.9,0,0,3.9,0,8.7V420c0,4.8,3.9,8.7,8.7,8.7h607c2.6,0,5-1.1,6.6-3.1c0.1-0.1,0.1-0.2,0.2-0.2c0.5-0.6,0.9-1.3,1.2-2.1
		c0.4-1,0.7-2.2,0.7-3.3V8.7C624.4,3.9,620.5,0,615.7,0z M622,420c0,1.2-0.4,2.4-1,3.4c-0.6,0.9-1.4,1.6-2.4,2.1
		c-0.9,0.5-1.9,0.7-2.9,0.7H8.7c-3.4,0-6.2-2.8-6.2-6.2V8.7c0-3.4,2.8-6.2,6.2-6.2h607c3.4,0,6.2,2.8,6.2,6.2V420z"/>
	
		<rect x="1.2" y="34.9" style="clip-path:url(#SVGID_00000115512599321335474520000015877527898802431665_);fill:#3F3D56;" width="622" height="2.5"/>
	
		<circle style="clip-path:url(#SVGID_00000115512599321335474520000015877527898802431665_);fill:#3F3D56;" cx="22.4" cy="18.7" r="7.5"/>
	
		<circle style="clip-path:url(#SVGID_00000115512599321335474520000015877527898802431665_);fill:#3F3D56;" cx="43.9" cy="18.7" r="7.5"/>
	
		<circle style="clip-path:url(#SVGID_00000115512599321335474520000015877527898802431665_);fill:#3F3D56;" cx="65.4" cy="18.7" r="7.5"/>
	<path style="clip-path:url(#SVGID_00000115512599321335474520000015877527898802431665_);fill:#2266FF;" d="M402.8,175.4
		c-11.1,0-20.2-9-20.2-20.2c0-11.1,9-20.2,20.2-20.2c11.1,0,20.2,9,20.2,20.2v0C423,166.3,413.9,175.3,402.8,175.4z M402.8,136.9
		c-10.1,0-18.3,8.2-18.3,18.3s8.2,18.3,18.3,18.3c10.1,0,18.3-8.2,18.3-18.3v0C421.1,145.1,412.9,136.9,402.8,136.9z"/>
	
		<path id="f1f767dc-4b88-4f47-9e03-7555881e6705-1146" style="clip-path:url(#SVGID_00000115512599321335474520000015877527898802431665_);fill:#2266FF;" d="
		M400.9,162.5c-0.4,0-0.9-0.1-1.2-0.4l0,0l-4.5-3.5c-0.9-0.7-1-1.9-0.4-2.8c0.7-0.9,1.9-1,2.8-0.4l2.9,2.2l6.9-9
		c0.7-0.9,1.9-1,2.8-0.4c0,0,0,0,0,0l0,0l0,0.1l0-0.1c0.9,0.7,1,1.9,0.4,2.8l-8.1,10.6C402.1,162.2,401.5,162.5,400.9,162.5
		L400.9,162.5z"/>
	<path style="clip-path:url(#SVGID_00000115512599321335474520000015877527898802431665_);fill:#E6E6E6;" d="M460.5,175.4
		c-11.1,0-20.2-9-20.2-20.2c0-11.1,9-20.2,20.2-20.2c11.1,0,20.2,9,20.2,20.2v0C480.7,166.3,471.7,175.3,460.5,175.4z M460.5,136.9
		c-10.1,0-18.3,8.2-18.3,18.3s8.2,18.3,18.3,18.3c10.1,0,18.3-8.2,18.3-18.3v0C478.8,145.1,470.6,136.9,460.5,136.9z"/>
	<path style="clip-path:url(#SVGID_00000115512599321335474520000015877527898802431665_);fill:#E6E6E6;" d="M467.8,162.2
		c-0.5,0.5-1.3,0.5-1.8,0l-4.8-4.8c-0.2-0.2-0.6-0.2-0.8,0l-4.8,4.8c-0.5,0.5-1.3,0.5-1.8,0s-0.5-1.3,0-1.8l4.8-4.8
		c0.2-0.2,0.2-0.6,0-0.8l-4.8-4.8c-0.5-0.5-0.5-1.3,0-1.8s1.3-0.5,1.8,0l0,0l4.8,4.8c0.2,0.2,0.6,0.2,0.8,0l4.8-4.8
		c0.5-0.5,1.3-0.5,1.8,0s0.5,1.3,0,1.8l-4.8,4.8c-0.2,0.2-0.2,0.6,0,0.8c0,0,0,0,0,0l4.8,4.8C468.3,160.8,468.3,161.7,467.8,162.2z"
		/>
	<path style="clip-path:url(#SVGID_00000115512599321335474520000015877527898802431665_);fill:#2266FF;" d="M402.8,239.4
		c-11.1,0-20.2-9-20.2-20.2c0-11.1,9-20.2,20.2-20.2c11.1,0,20.2,9,20.2,20.2C423,230.4,413.9,239.4,402.8,239.4z M402.8,201
		c-10.1,0-18.3,8.2-18.3,18.3s8.2,18.3,18.3,18.3c10.1,0,18.3-8.2,18.3-18.3v0C421.1,209.2,412.9,201,402.8,201L402.8,201z"/>
	
		<path id="a793c70c-1521-4e6e-9b61-9683a9490971-1147" style="clip-path:url(#SVGID_00000115512599321335474520000015877527898802431665_);fill:#2266FF;" d="
		M400.9,226.6c-0.4,0-0.9-0.1-1.2-0.4l0,0l-4.5-3.5c-0.9-0.7-1-1.9-0.4-2.8c0.7-0.9,1.9-1,2.8-0.4l2.9,2.2l6.9-9
		c0.7-0.9,1.9-1,2.8-0.4c0,0,0,0,0,0l0,0l0,0.1l0-0.1c0.9,0.7,1,1.9,0.4,2.8l-8.1,10.6C402.1,226.3,401.5,226.6,400.9,226.6
		L400.9,226.6z"/>
	<path style="clip-path:url(#SVGID_00000115512599321335474520000015877527898802431665_);fill:#E6E6E6;" d="M460.5,239.4
		c-11.1,0-20.2-9-20.2-20.2c0-11.1,9-20.2,20.2-20.2c11.1,0,20.2,9,20.2,20.2C480.7,230.4,471.7,239.4,460.5,239.4z M460.5,201
		c-10.1,0-18.3,8.2-18.3,18.3s8.2,18.3,18.3,18.3c10.1,0,18.3-8.2,18.3-18.3v0C478.8,209.2,470.6,201,460.5,201L460.5,201z"/>
	<path style="clip-path:url(#SVGID_00000115512599321335474520000015877527898802431665_);fill:#E6E6E6;" d="M467.8,226.2
		c-0.5,0.5-1.3,0.5-1.8,0l-4.8-4.8c-0.2-0.2-0.6-0.2-0.8,0l-4.8,4.8c-0.5,0.5-1.3,0.5-1.8,0s-0.5-1.3,0-1.8l0,0l4.8-4.8
		c0.2-0.2,0.2-0.6,0-0.8l-4.8-4.8c-0.5-0.5-0.5-1.3,0-1.8s1.3-0.5,1.8,0l0,0l4.8,4.8c0.2,0.2,0.6,0.2,0.8,0l4.8-4.8
		c0.5-0.5,1.3-0.5,1.8,0s0.5,1.3,0,1.8l-4.8,4.8c-0.2,0.2-0.2,0.6,0,0.8l4.8,4.8C468.3,224.9,468.3,225.7,467.8,226.2z"/>
	<path style="clip-path:url(#SVGID_00000115512599321335474520000015877527898802431665_);fill:#E6E6E6;" d="M402.8,303.5
		c-11.1,0-20.2-9-20.2-20.2c0-11.1,9-20.2,20.2-20.2c11.1,0,20.2,9,20.2,20.2C423,294.4,413.9,303.4,402.8,303.5z M402.8,265
		c-10.1,0-18.3,8.2-18.3,18.3s8.2,18.3,18.3,18.3c10.1,0,18.3-8.2,18.3-18.3v0C421.1,273.2,412.9,265,402.8,265z"/>
	
		<path id="b02a55c8-7c5c-410c-bde7-66a7a3b003d7-1148" style="clip-path:url(#SVGID_00000115512599321335474520000015877527898802431665_);fill:#E6E6E6;" d="
		M400.9,290.6c-0.4,0-0.9-0.1-1.2-0.4l0,0l-4.5-3.5c-0.9-0.7-1-1.9-0.4-2.8c0.7-0.9,1.9-1,2.8-0.4l2.9,2.2l6.9-9
		c0.7-0.9,1.9-1,2.8-0.4c0,0,0,0,0,0l0,0l0,0.1l0-0.1c0.9,0.7,1,1.9,0.4,2.8l-8.1,10.6C402.1,290.3,401.5,290.6,400.9,290.6
		L400.9,290.6z"/>
	<path style="clip-path:url(#SVGID_00000115512599321335474520000015877527898802431665_);fill:#E6E6E6;" d="M460.5,303.5
		c-11.1,0-20.2-9-20.2-20.2c0-11.1,9-20.2,20.2-20.2c11.1,0,20.2,9,20.2,20.2C480.7,294.4,471.7,303.4,460.5,303.5z M460.5,265
		c-10.1,0-18.3,8.2-18.3,18.3s8.2,18.3,18.3,18.3c10.1,0,18.3-8.2,18.3-18.3v0C478.8,273.2,470.6,265,460.5,265z"/>
	<path style="clip-path:url(#SVGID_00000115512599321335474520000015877527898802431665_);fill:#E6E6E6;" d="M467.8,290.3
		c-0.5,0.5-1.3,0.5-1.8,0l-4.8-4.8c-0.2-0.2-0.6-0.2-0.8,0l-4.8,4.8c-0.5,0.5-1.3,0.5-1.8,0s-0.5-1.3,0-1.8l0,0l4.8-4.8
		c0.2-0.2,0.2-0.6,0-0.8l-4.8-4.8c-0.5-0.5-0.5-1.3,0-1.8s1.3-0.5,1.8,0l0,0l4.8,4.8c0.2,0.2,0.6,0.2,0.8,0l4.8-4.8
		c0.5-0.5,1.3-0.5,1.8,0s0.5,1.3,0,1.8l-4.8,4.8c-0.2,0.2-0.2,0.6,0,0.8c0,0,0,0,0,0l4.8,4.8C468.3,288.9,468.3,289.8,467.8,290.3z"
		/>
	<path style="clip-path:url(#SVGID_00000115512599321335474520000015877527898802431665_);fill:#2266FF;" d="M224.6,160.1H67.4
		c-4.2,0-7.6-3.4-7.6-7.6c0-4.2,3.4-7.6,7.6-7.6h157.3c4.2,0,7.6,3.4,7.6,7.6C232.3,156.6,228.8,160.1,224.6,160.1z"/>
	<path style="clip-path:url(#SVGID_00000115512599321335474520000015877527898802431665_);fill:#3F3D56;" d="M321.7,166.6h-270
		c-0.6,0-1-0.4-1-1s0.4-1,1-1h270c0.6,0,1,0.4,1,1S322.3,166.6,321.7,166.6z"/>
	<path style="clip-path:url(#SVGID_00000115512599321335474520000015877527898802431665_);fill:#2266FF;" d="M224.6,224.1H67.4
		c-4.2,0-7.6-3.4-7.6-7.6c0-4.2,3.4-7.6,7.6-7.6h157.3c4.2,0,7.6,3.4,7.6,7.6C232.3,220.7,228.8,224.1,224.6,224.1z"/>
	<path style="clip-path:url(#SVGID_00000115512599321335474520000015877527898802431665_);fill:#3F3D56;" d="M321.7,230.6h-270
		c-0.6,0-1-0.4-1-1s0.4-1,1-1h270c0.6,0,1,0.4,1,1S322.3,230.6,321.7,230.6z"/>
	<path style="clip-path:url(#SVGID_00000115512599321335474520000015877527898802431665_);fill:#F2F2F2;" d="M224.6,288.2H67.4
		c-4.2,0-7.6-3.4-7.6-7.6c0-4.2,3.4-7.6,7.6-7.6h157.3c4.2,0,7.6,3.4,7.6,7.6C232.3,284.7,228.8,288.2,224.6,288.2z"/>
	<path style="clip-path:url(#SVGID_00000115512599321335474520000015877527898802431665_);fill:#3F3D56;" d="M321.7,294.7h-270
		c-0.6,0-1-0.4-1-1s0.4-1,1-1h270c0.6,0,1,0.4,1,1S322.3,294.7,321.7,294.7z"/>
</g>
</svg>
