<?xml version="1.0" encoding="utf-8"?>
<!-- Generator: Adobe Illustrator 25.4.1, SVG Export Plug-In . SVG Version: 6.00 Build 0)  -->
<svg version="1.1" id="Layer_1" xmlns="http://www.w3.org/2000/svg" xmlns:xlink="http://www.w3.org/1999/xlink" x="0px" y="0px"
	 viewBox="0 0 651.3 406.7" style="enable-background:new 0 0 651.3 406.7;" xml:space="preserve">
<style type="text/css">
	.st0{fill:#F0F0F0;}
	.st1{fill:#CACACA;}
	.st2{fill:#3F3D56;}
	.st3{fill:#E6E6E6;}
	.st4{fill:#2266FF;}
	.st5{fill:#FFFFFF;}
	.st6{opacity:0.2;enable-background:new    ;}
</style>
<path class="st0" d="M624.6,345.7c-0.5,20.3-3.9,40.4-10.1,59.7c-0.1,0.4-0.3,0.9-0.4,1.3h-37.6c0-0.4,0.1-0.8,0.1-1.3
	c2.5-28.8,17-204.4-0.3-234.5C577.8,173.3,627.5,254,624.6,345.7z"/>
<path class="st0" d="M621.8,405.4c-0.3,0.4-0.6,0.9-1,1.3h-28.2c0.2-0.4,0.5-0.8,0.7-1.3c4.7-8.4,18.5-33.6,31.3-59.7
	c13.8-28,26.4-57.1,25.3-67.7C650.3,280.4,659.8,352.8,621.8,405.4z"/>
<path class="st0" d="M75,56.9c-17.3,30-2.8,205.6-0.3,234.5c0,0.5,0.1,0.9,0.1,1.3H37.2c-0.1-0.4-0.3-0.9-0.4-1.3
	c-6.1-19.3-9.5-39.4-10.1-59.7C23.7,140,73.5,59.3,75,56.9z"/>
<path class="st0" d="M1.3,164c-1.1,10.5,11.6,39.6,25.3,67.7c12.8,26.1,26.6,51.3,31.3,59.7c0.3,0.5,0.5,1,0.7,1.3H30.4
	c-0.3-0.4-0.7-0.9-1-1.3C-8.6,238.8,1,166.4,1.3,164z"/>
<path class="st1" d="M646.2,33H14.8c-0.5,0-0.9-0.4-0.9-0.9s0.4-0.9,0.9-0.9h631.4c0.5,0,0.9,0.4,0.9,0.9S646.7,33,646.2,33z"/>
<circle class="st2" cx="35.4" cy="10.1" r="10.1"/>
<circle class="st2" cx="70.2" cy="10.1" r="10.1"/>
<circle class="st2" cx="105.1" cy="10.1" r="10.1"/>
<path class="st2" d="M625.3,6.2h-24.7c-1,0-1.8-0.8-1.8-1.8c0-1,0.8-1.8,1.8-1.8c0,0,0,0,0,0h24.7c1,0,1.8,0.8,1.8,1.8
	C627.2,5.3,626.4,6.2,625.3,6.2C625.3,6.2,625.3,6.2,625.3,6.2z"/>
<path class="st2" d="M625.3,13h-24.7c-1,0-1.8-0.8-1.8-1.8c0-1,0.8-1.8,1.8-1.8c0,0,0,0,0,0h24.7c1,0,1.8,0.8,1.8,1.8
	C627.2,12.2,626.4,13,625.3,13C625.3,13,625.3,13,625.3,13z"/>
<path class="st2" d="M625.3,19.9h-24.7c-1,0-1.8-0.8-1.8-1.8c0-1,0.8-1.8,1.8-1.8c0,0,0,0,0,0h24.7c1,0,1.8,0.8,1.8,1.8
	C627.2,19.1,626.4,19.9,625.3,19.9C625.3,19.9,625.3,19.9,625.3,19.9z"/>
<path class="st3" d="M613.9,405.9h-238c-3.9,0-7-3.1-7-7v-310c0-3.9,3.1-7,7-7h238c3.9,0,7,3.1,7,7v310
	C620.9,402.8,617.8,405.9,613.9,405.9z M375.9,83.9c-2.8,0-5,2.2-5,5v310c0,2.8,2.2,5,5,5h238c2.8,0,5-2.2,5-5v-310c0-2.8-2.2-5-5-5
	H375.9z"/>
<path class="st3" d="M541.1,217.7h-101c-3.9,0-7-3.1-7-7v-79c0-3.9,3.1-7,7-7h101c3.9,0,7,3.1,7,7v79
	C548.1,214.6,545,217.7,541.1,217.7z"/>
<path class="st2" d="M540.9,349.9h-101c-3.9,0-7-3.1-7-7v-79c0-3.9,3.1-7,7-7h101c3.9,0,7,3.1,7,7v79
	C547.9,346.8,544.8,349.9,540.9,349.9z M439.9,258.9c-2.8,0-5,2.2-5,5v79c0,2.8,2.2,5,5,5h101c2.8,0,5-2.2,5-5v-79c0-2.8-2.2-5-5-5
	H439.9z"/>
<path class="st4" d="M568.9,371.9h-101c-3.9,0-7-3.1-7-7v-79c0-3.9,3.1-7,7-7h101c3.9,0,7,3.1,7,7v79
	C575.9,368.8,572.8,371.9,568.9,371.9z"/>
<path class="st5" d="M529.7,348.8H479c-0.1,0-0.1,0-0.2,0l24-41.5c0.5-0.8,1.5-1.1,2.3-0.6c0.3,0.2,0.5,0.4,0.6,0.6l16.1,27.9
	l0.8,1.3L529.7,348.8z"/>
<polygon class="st6" points="529.7,348.8 512.4,348.8 520.9,336.4 521.5,335.5 521.8,335.1 522.6,336.4 "/>
<path class="st5" d="M558,348.8h-43.9l8.5-12.3l0.6-0.9l11.1-16.1c0.8-1,2.2-1.1,3.1-0.4c0.1,0,0.1,0.1,0.2,0.2
	c0.1,0.1,0.1,0.1,0.2,0.2L558,348.8z"/>
<circle class="st5" cx="555.9" cy="299.5" r="7.5"/>
<path class="st3" d="M272.5,405.8h-238c-3.9,0-7-3.1-7-7v-79c0-3.9,3.1-7,7-7h238c3.9,0,7,3.1,7,7v79
	C279.5,402.7,276.4,405.8,272.5,405.8z"/>
<path class="st2" d="M271.5,292.8h-238c-3.9,0-7-3.1-7-7v-193c0-3.9,3.1-7,7-7h238c3.9,0,7,3.1,7,7v193
	C278.5,289.7,275.4,292.8,271.5,292.8z M33.5,87.8c-2.8,0-5,2.2-5,5v193c0,2.8,2.2,5,5,5h238c2.8,0,5-2.2,5-5v-193c0-2.8-2.2-5-5-5
	H33.5z"/>
<path class="st4" d="M310.5,327.8h-238c-3.9,0-7-3.1-7-7v-193c0-3.9,3.1-7,7-7h238c3.9,0,7,3.1,7,7v193
	C317.5,324.7,314.4,327.8,310.5,327.8z"/>
<path class="st5" d="M218.7,280.3H97.2c-0.2,0-0.3,0-0.5,0l57.5-99.5c1.1-1.9,3.5-2.6,5.5-1.5c0.6,0.4,1.2,0.9,1.5,1.5l38.6,66.8
	l1.8,3.2L218.7,280.3z"/>
<polygon class="st6" points="218.7,280.3 177.2,280.3 197.6,250.7 199,248.6 199.8,247.5 201.6,250.7 "/>
<path class="st5" d="M286.4,280.3H181.3l20.4-29.6l1.5-2.1l26.5-38.5c1.8-2.3,5.2-2.7,7.5-0.9c0.1,0.1,0.3,0.2,0.4,0.4
	c0.1,0.2,0.3,0.3,0.4,0.5L286.4,280.3z"/>
<circle class="st5" cx="279.1" cy="160.3" r="18"/>
</svg>
