<?xml version="1.0" encoding="utf-8"?>
<!-- Generator: Adobe Illustrator 25.4.1, SVG Export Plug-In . SVG Version: 6.00 Build 0)  -->
<svg version="1.1" id="Layer_1" xmlns="http://www.w3.org/2000/svg" xmlns:xlink="http://www.w3.org/1999/xlink" x="0px" y="0px"
	 viewBox="0 0 721.8 604.2" style="enable-background:new 0 0 721.8 604.2;" xml:space="preserve">
<style type="text/css">
	.st0{fill:#E6E6E6;}
	.st1{fill:#535461;}
</style>
<path class="st0" d="M393.5,113.9l-8.7,4.4c-10.1-19.8-23.4-37.8-39.4-53.2C266.5-10.6,140.8-8.1,65,70.6s-73.3,204.5,5.5,280.2
	c15,14.4,32.2,26.4,50.9,35.5l-4.3,8.8C13.9,345-29.2,220.6,20.9,117.3S195.6-29.2,298.9,21C339.7,40.8,372.9,73.4,393.5,113.9z"/>
<path class="st0" d="M97.8,296.1C71.1,324,71.9,368.3,99.8,395s72.1,25.9,98.9-1.9l12-12.5l-100.8-96.9L97.8,296.1z"/>
<path class="st1" d="M103.1,276.5c-6,6.2-5.8,16.1,0.4,22l92.5,88.9c6.2,6,16.1,5.8,22-0.4c6-6.2,5.8-16.1-0.4-22l0,0l-92.5-88.9
	C118.9,270.1,109.1,270.3,103.1,276.5z"/>
<path class="st0" d="M380.5,204l12-12.5c26.8-27.8,25.9-72.1-1.9-98.9c-27.8-26.8-72.1-25.9-98.9,1.9l-12,12.5L380.5,204z"/>
<path class="st1" d="M272.3,100.6c-6,6.2-5.8,16.1,0.4,22l92.5,88.9c6.2,6,16.1,5.8,22-0.4c6-6.2,5.8-16.1-0.4-22l0,0l-92.5-88.9
	C288.1,94.2,278.2,94.4,272.3,100.6z"/>
<path class="st1" d="M311.3,306v-7.2c0,0,31.5-17.7,57.1,0v6.6L311.3,306z"/>
<path class="st1" d="M598.2,306v-7.2c0,0,31.5-17.7,57.1,0v6.6L598.2,306z"/>
<path class="st0" d="M405.8,305.3H375c0,0-7.9-9.2-34.1-8.5s-31.5,8.5-31.5,8.5s-25.9,17.4-31.8,39.1c0,0-31.8,95.5-32.5,170.4
	s28.2,85.4,43.3,87.3s42-0.7,68.3-67l11.2-38.7c0,0,2-23,25.6-8.5S438,480,438,480h88.6c0,0,29.5,18.4,56.5,3.9
	c0,0,10.5-13.8,20.4,32.8c0,0,30.2,95.9,76.8,86s41.4-90,41.4-90s-6.2-122.5-31.8-165.8c0,0-24.6-45-41-46.9c0,0-35.5-6.6-49.2-0.7
	l-7.9,6.6L405.8,305.3z"/>
<circle class="st1" cx="334.3" cy="369.7" r="57.1"/>
<circle class="st1" cx="632.3" cy="369.7" r="57.1"/>
<path class="st0" d="M344.2,357l-7.6,6.7c-1.3,1.2-3.3,1.2-4.7,0l-7.6-6.7c-0.8-0.7-1.2-1.6-1.2-2.6v-18.5c0-1.9,1.6-3.5,3.5-3.5
	h15.3c1.9,0,3.5,1.6,3.5,3.5v18.5C345.4,355.3,345,356.3,344.2,357z"/>
<path class="st0" d="M344.2,382.4l-7.6-6.7c-1.3-1.2-3.3-1.2-4.7,0l-7.6,6.7c-0.8,0.7-1.2,1.6-1.2,2.6v18.5c0,1.9,1.6,3.5,3.5,3.5
	h15.3c1.9,0,3.5-1.6,3.5-3.5v-18.5C345.4,384.1,345,383.1,344.2,382.4z"/>
<path class="st0" d="M321.5,379.7l6.7-7.6c1.2-1.3,1.2-3.3,0-4.7l-6.7-7.6c-0.7-0.8-1.6-1.2-2.6-1.2h-18.5c-1.9,0-3.5,1.6-3.5,3.5
	v15.3c0,1.9,1.6,3.5,3.5,3.5h18.5C319.9,380.9,320.9,380.4,321.5,379.7z"/>
<path class="st0" d="M347,379.7l-6.7-7.6c-1.2-1.3-1.2-3.3,0-4.7l6.7-7.6c0.7-0.8,1.6-1.2,2.6-1.2h18.5c1.9,0,3.5,1.6,3.5,3.5v15.3
	c0,1.9-1.6,3.5-3.5,3.5h-18.5C348.6,380.9,347.7,380.4,347,379.7z"/>
<circle class="st1" cx="411.7" cy="432.1" r="41.4"/>
<circle class="st1" cx="554.9" cy="432.1" r="41.4"/>
<circle class="st0" cx="411.7" cy="432.1" r="27.6"/>
<path class="st1" d="M411.7,451.1c-10.5,0-19-8.5-19-19c0-10.5,8.5-19,19-19c10.5,0,19,8.5,19,19c0,0,0,0,0,0
	C430.8,442.6,422.2,451.1,411.7,451.1z M411.7,414.3c-9.8,0-17.7,7.9-17.7,17.7c0,9.8,7.9,17.7,17.7,17.7c9.8,0,17.7-7.9,17.7-17.7
	c0,0,0,0,0,0C429.4,422.3,421.5,414.4,411.7,414.3z"/>
<circle class="st0" cx="554.9" cy="432.1" r="27.6"/>
<path class="st1" d="M554.9,451.1c-10.5,0-19-8.5-19-19s8.5-19,19-19c10.5,0,19,8.5,19,19C573.9,442.6,565.4,451.1,554.9,451.1z
	 M554.9,414.3c-9.8,0-17.7,7.9-17.7,17.7c0,9.8,7.9,17.7,17.7,17.7c9.8,0,17.7-7.9,17.7-17.7c0,0,0,0,0,0
	C572.6,422.3,564.7,414.4,554.9,414.3z"/>
<circle class="st1" cx="484.6" cy="436.7" r="11.8"/>
<circle class="st1" cx="466.6" cy="397.2" r="2.6"/>
<circle class="st1" cx="476.2" cy="397.2" r="2.6"/>
<circle class="st1" cx="474.9" cy="409.5" r="2.6"/>
<circle class="st1" cx="484" cy="409.7" r="2.6"/>
<circle class="st1" cx="493" cy="409.5" r="2.6"/>
<circle class="st1" cx="471.1" cy="403.7" r="2.6"/>
<circle class="st1" cx="479.4" cy="403.8" r="2.6"/>
<circle class="st1" cx="487.9" cy="403.8" r="2.6"/>
<circle class="st1" cx="496.8" cy="403.7" r="2.6"/>
<circle class="st1" cx="484" cy="397.3" r="2.6"/>
<circle class="st1" cx="493.2" cy="397.3" r="2.6"/>
<circle class="st1" cx="500.7" cy="397.2" r="2.6"/>
<path class="st1" d="M386.5,310.9c-2.5,0-4.6,2.1-4.6,4.6v13.8c0,2.5,2.1,4.6,4.6,4.6h3.3c2.5,0,4.6-2.1,4.6-4.6v-13.8
	c0-2.5-2.1-4.6-4.6-4.6H386.5z"/>
<path class="st1" d="M578.2,310.9c-2.5,0-4.6,2.1-4.6,4.6v13.8c0,2.5,2.1,4.6,4.6,4.6h3.3c2.5,0,4.6-2.1,4.6-4.6v-13.8
	c0-2.5-2.1-4.6-4.6-4.6H578.2z"/>
<circle class="st0" cx="633" cy="334.9" r="15.8"/>
<circle class="st0" cx="599.5" cy="368.4" r="15.8"/>
<circle class="st0" cx="667.8" cy="366.4" r="15.8"/>
<circle class="st0" cx="635.6" cy="401.2" r="15.8"/>
<path class="st1" d="M416.2,301.8c-7.3,0-13.3,5.9-13.3,13.3v58.8c0,7.3,5.9,13.3,13.3,13.3h134.9c7.3,0,13.3-5.9,13.3-13.3V315
	c0-7.3-5.9-13.3-13.3-13.3H416.2z"/>
<path class="st1" d="M643.7,342.1h-21.4l10.3-17.7L643.7,342.1z M624.6,340.8h16.7l-8.6-13.8L624.6,340.8z"/>
<path class="st1" d="M608.4,376.3h-17.7v-15.8h17.7V376.3z M592,374.9h15.1v-13.1H592V374.9z"/>
<path class="st1" d="M667.8,376.3c-5.4,0-9.8-4.4-9.8-9.8s4.4-9.8,9.8-9.8s9.8,4.4,9.8,9.8C677.6,371.9,673.2,376.3,667.8,376.3z
	 M667.8,357.9c-4.7,0-8.5,3.8-8.5,8.5s3.8,8.5,8.5,8.5c4.7,0,8.5-3.8,8.5-8.5c0,0,0,0,0,0C676.3,361.7,672.5,357.9,667.8,357.9
	L667.8,357.9z"/>
<rect x="634.8" y="390.8" transform="matrix(0.7071 -0.7071 0.7071 0.7071 -97.5764 566.8572)" class="st1" width="1.3" height="20.9"/>
<rect x="625.2" y="400.4" transform="matrix(0.7226 -0.6913 0.6913 0.7226 -100.8982 550.6887)" class="st1" width="20.9" height="1.3"/>
</svg>
