<?xml version="1.0" encoding="utf-8"?>
<!-- Generator: Adobe Illustrator 25.4.1, SVG Export Plug-In . SVG Version: 6.00 Build 0)  -->
<svg version="1.1" id="Layer_1" xmlns="http://www.w3.org/2000/svg" xmlns:xlink="http://www.w3.org/1999/xlink" x="0px" y="0px"
	 viewBox="0 0 726.2 405.3" style="enable-background:new 0 0 726.2 405.3;" xml:space="preserve">
<style type="text/css">
	.st0{fill:#CACACA;}
	.st1{fill:#FFFFFF;}
	.st2{fill:#3F3D56;}
	.st3{fill:#2266FF;}
	.st4{fill:#E4E4E4;}
</style>
<path class="st0" d="M93,290h487.2V8c0-4.4-3.6-8-8-8H100.9c-4.4,0-8,3.6-8,8V290z"/>
<rect x="108" y="11" class="st1" width="457.1" height="259.5"/>
<path class="st2" d="M92.5,282.4v34.8c0,6.1,4.9,11,11,11c0,0,0,0,0,0h179.8v68.7h-2.4c-0.8,0-1.4,0.6-1.4,1.4c0,0,0,0,0,0v4.8
	c0,0.8,0.6,1.4,1.4,1.4c0,0,0,0,0,0h111.6c0.8,0,1.4-0.6,1.4-1.4c0,0,0,0,0,0v-4.8c0-0.8-0.6-1.4-1.4-1.4c0,0,0,0,0,0h-2.4v-68.7
	H570c6.1,0,11-4.9,11-11v0v-34.8L92.5,282.4z"/>
<path class="st3" d="M250.1,139.4H138.8c-1.6,0-2.9-1.3-2.9-2.9V91.2c0-1.6,1.3-2.9,2.9-2.9h111.4c1.6,0,2.9,1.3,2.9,2.9v45.2
	C253.1,138,251.8,139.4,250.1,139.4z"/>
<path class="st4" d="M239.5,161h-90.2c-1.9,0-3.5-1.6-3.5-3.5c0-1.9,1.6-3.5,3.5-3.5h90.2C244.1,153.9,244.1,161.1,239.5,161z"/>
<path class="st4" d="M239.5,177.1h-90.2c-1.9,0-3.5-1.6-3.5-3.5c0-1.9,1.6-3.5,3.5-3.5h90.2C244.1,170,244.1,177.2,239.5,177.1z"/>
<path class="st4" d="M239.5,193.2h-90.2c-1.9,0-3.5-1.6-3.5-3.5c0-1.9,1.6-3.5,3.5-3.5h90.2C244.1,186.1,244.1,193.3,239.5,193.2z"
	/>
<path class="st3" d="M392.2,139.4H280.9c-1.6,0-2.9-1.3-2.9-2.9V91.2c0-1.6,1.3-2.9,2.9-2.9h111.4c1.6,0,2.9,1.3,2.9,2.9v45.2
	C395.2,138,393.9,139.4,392.2,139.4z"/>
<path class="st4" d="M381.6,161h-90.2c-1.9,0-3.5-1.6-3.5-3.5c0-1.9,1.6-3.5,3.5-3.5h90.2C386.2,153.9,386.2,161.1,381.6,161z"/>
<path class="st4" d="M381.6,177.1h-90.2c-1.9,0-3.5-1.6-3.5-3.5c0-1.9,1.6-3.5,3.5-3.5h90.2C386.2,170,386.2,177.2,381.6,177.1z"/>
<path class="st4" d="M381.6,193.2h-90.2c-1.9,0-3.5-1.6-3.5-3.5c0-1.9,1.6-3.5,3.5-3.5h90.2C386.2,186.1,386.2,193.3,381.6,193.2z"
	/>
<path class="st3" d="M534.3,139.4H423c-1.6,0-2.9-1.3-2.9-2.9V91.2c0-1.6,1.3-2.9,2.9-2.9h111.4c1.6,0,2.9,1.3,2.9,2.9v45.2
	C537.3,138,536,139.4,534.3,139.4z"/>
<path class="st4" d="M523.7,161h-90.2c-1.9,0-3.5-1.6-3.5-3.5c0-1.9,1.6-3.5,3.5-3.5h90.2C528.3,153.9,528.3,161.1,523.7,161z"/>
<path class="st4" d="M523.7,177.1h-90.2c-1.9,0-3.5-1.6-3.5-3.5c0-1.9,1.6-3.5,3.5-3.5h90.2C528.3,170,528.3,177.2,523.7,177.1z"/>
<path class="st4" d="M523.7,193.2h-90.2c-1.9,0-3.5-1.6-3.5-3.5c0-1.9,1.6-3.5,3.5-3.5h90.2C528.3,186.1,528.3,193.3,523.7,193.2z"
	/>
<path class="st2" d="M724.7,88.9l0.3,56.6l1.2-0.1l1.2,21l-2.3,0.1l0.1,12.6l1.8,0l0.4,21l-2.1,0l1,184.9c0,10.1-8.1,18.3-18.2,18.4
	l-204.2,1.1c-10.1,0-18.3-8.1-18.4-18.2L484,90.2c0-10.1,8.1-18.3,18.2-18.4l204.2-1.1C716.4,70.7,724.6,78.8,724.7,88.9z"/>
<path class="st1" d="M708.4,391.7l-204.9,1.1c-3.1,0-5.6-2.5-5.7-5.6l-1.6-298.1c0-3.1,2.5-5.6,5.6-5.7l204.9-1.1
	c3.1,0,5.6,2.5,5.7,5.6l1.6,298.1C714,389.2,711.5,391.7,708.4,391.7z"/>
<circle class="st1" cx="603.5" cy="76.9" r="1.6"/>
<path class="st3" d="M664.4,166.3H545.8c-1.7,0-3.1-1.4-3.1-3.1v-48.1c0-1.7,1.4-3.1,3.1-3.1h118.6c1.7,0,3.1,1.4,3.1,3.1v48.1
	C667.5,164.9,666.1,166.3,664.4,166.3z"/>
<path class="st4" d="M653.1,189.4h-96c-2.1,0-3.7-1.7-3.7-3.7s1.7-3.7,3.7-3.7h96C658,181.8,658,189.5,653.1,189.4z"/>
<path class="st4" d="M653.1,206.5h-96c-2.1,0-3.7-1.7-3.7-3.7c0-2.1,1.7-3.7,3.7-3.7h96C658,199,658,206.6,653.1,206.5z"/>
<path class="st4" d="M653.1,223.7h-96c-2.1,0-3.7-1.7-3.7-3.7c0-2.1,1.7-3.7,3.7-3.7h96C658,216.1,658,223.7,653.1,223.7z"/>
<path class="st3" d="M664.4,305.9H545.8c-1.7,0-3.1-1.4-3.1-3.1v-48.1c0-1.7,1.4-3.1,3.1-3.1h118.6c1.7,0,3.1,1.4,3.1,3.1v48.1
	C667.5,304.5,666.1,305.9,664.4,305.9z"/>
<path class="st4" d="M653.1,329h-96c-2.1,0-3.7-1.7-3.7-3.7c0-2.1,1.7-3.7,3.7-3.7h96C658,321.5,658,329.1,653.1,329z"/>
<path class="st4" d="M653.1,346.2h-96c-2.1,0-3.7-1.7-3.7-3.7c0-2.1,1.7-3.7,3.7-3.7h96C658,338.6,658,346.2,653.1,346.2z"/>
<path class="st4" d="M653.1,363.3h-96c-2.1,0-3.7-1.7-3.7-3.7c0-2.1,1.7-3.7,3.7-3.7h96C658,355.8,658,363.4,653.1,363.3z"/>
<path class="st2" d="M137.5,390l-0.4-163.3l1.5,0l-0.1-30l-1.5,0l-0.1-50.1c0-7.9-6.4-14.2-14.3-14.2c0,0,0,0,0,0l-106.1,0.3
	c-7.9,0-14.2,6.4-14.2,14.3c0,0,0,0,0,0l0.1,34.9L0,181.9l0.5,21l1.9,0l0,4.6l-2,0.1l0.5,21l1.5,0l0.4,161.8
	c0,7.9,6.4,14.2,14.2,14.2c0,0,0,0,0.1,0l106.1-0.3C131.1,404.2,137.5,397.8,137.5,390z"/>
<path class="st1" d="M13.9,398c-2.7-1-4.5-3.5-4.5-6.4l-0.6-246c0-3.8,3-6.8,6.8-6.8l22.6-0.1l-0.3,0.7c-1.6,4,0.3,8.6,4.3,10.3
	c0.9,0.4,2,0.6,3,0.6l50.1-0.1c2.5-0.2,4.8-1.6,6.1-3.8c1.3-2.1,1.5-4.8,0.5-7.1l-0.3-0.7l23.3-0.1c3.8,0,6.8,3,6.8,6.8l0.6,234.7
	c0,10-8.1,18.1-18.1,18.2l-98.1,0.2C15.4,398.4,14.7,398.2,13.9,398z"/>
<circle class="st1" cx="52.6" cy="142.9" r="1.6"/>
<path class="st3" d="M112.6,220.1H32c-1.2,0-2.1-0.9-2.1-2.1v-32.7c0-1.2,0.9-2.1,2.1-2.1h80.6c1.2,0,2.1,0.9,2.1,2.1V218
	C114.7,219.1,113.8,220.1,112.6,220.1z"/>
<path class="st4" d="M104.9,235.8H39.7c-1.4,0-2.5-1.1-2.5-2.5s1.1-2.5,2.5-2.5h65.2C108.2,230.7,108.2,235.8,104.9,235.8z"/>
<path class="st4" d="M104.9,247.4H39.7c-1.4,0-2.5-1.1-2.6-2.5s1.1-2.5,2.5-2.6c0,0,0,0,0,0h65.2
	C108.2,242.3,108.2,247.5,104.9,247.4z"/>
<path class="st4" d="M104.9,259.1H39.7c-1.4,0-2.5-1.1-2.5-2.5s1.1-2.5,2.5-2.5h65.2C108.2,254,108.2,259.1,104.9,259.1z"/>
<path class="st3" d="M112.6,318.1H32c-1.2,0-2.1-0.9-2.1-2.1v-32.7c0-1.2,0.9-2.1,2.1-2.1h80.6c1.2,0,2.1,0.9,2.1,2.1V316
	C114.7,317.1,113.8,318.1,112.6,318.1z"/>
<path class="st4" d="M104.9,333.8H39.7c-1.4,0-2.5-1.1-2.5-2.5s1.1-2.5,2.5-2.5h65.2C108.2,328.7,108.2,333.8,104.9,333.8z"/>
<path class="st4" d="M104.9,345.4H39.7c-1.4,0-2.5-1.1-2.6-2.5s1.1-2.5,2.5-2.6c0,0,0,0,0,0h65.2
	C108.2,340.3,108.2,345.5,104.9,345.4z"/>
<path class="st4" d="M104.9,357.1H39.7c-1.4,0-2.5-1.1-2.5-2.5s1.1-2.5,2.5-2.5h65.2C108.2,352,108.2,357.1,104.9,357.1z"/>
</svg>
