<?xml version="1.0" encoding="utf-8"?>
<!-- Generator: Adobe Illustrator 25.4.1, SVG Export Plug-In . SVG Version: 6.00 Build 0)  -->
<svg version="1.1" id="Layer_1" xmlns="http://www.w3.org/2000/svg" xmlns:xlink="http://www.w3.org/1999/xlink" x="0px" y="0px"
	 viewBox="0 0 468.8 441.5" style="enable-background:new 0 0 468.8 441.5;" xml:space="preserve">
<style type="text/css">
	.st0{fill:#E6E6E6;}
	.st1{fill:#FFFFFF;}
	.st2{fill:#2266FF;}
	.st3{fill:#CACACA;}
	.st4{fill:#3F3D56;}
</style>
<path class="st0" d="M436.9,441.5H31.9c-7.5,0-13.6-6.1-13.6-13.6V98.1c0-7.5,6.1-13.6,13.6-13.6h404.9c7.5,0,13.6,6.1,13.6,13.6
	v329.7C450.5,435.4,444.4,441.4,436.9,441.5z"/>
<path class="st1" d="M397.5,432.3H41.1c-7.5,0-13.6-6.1-13.6-13.6V107.3c0-7.5,6.1-13.6,13.6-13.6h386.6c7.5,0,13.6,6.1,13.6,13.6
	v281.2C441.3,412.7,421.7,432.3,397.5,432.3L397.5,432.3z"/>
<path class="st2" d="M299.6,164.1H136.8c-1.9,0-3.5-1.6-3.5-3.5s1.6-3.5,3.5-3.5h162.8c1.9,0,3.5,1.6,3.5,3.5
	S301.5,164.1,299.6,164.1L299.6,164.1z"/>
<path class="st0" d="M382,201.6H136.8c-1.9,0-3.5-1.6-3.5-3.5s1.6-3.5,3.5-3.5H382c1.9,0,3.5,1.6,3.5,3.5S383.9,201.6,382,201.6
	L382,201.6z"/>
<path class="st0" d="M382,239H136.8c-1.9,0-3.5-1.6-3.5-3.5s1.6-3.5,3.5-3.5H382c1.9,0,3.5,1.6,3.5,3.5S383.9,239,382,239L382,239z"
	/>
<path class="st0" d="M382,276.4H136.8c-1.9,0-3.5-1.6-3.5-3.5s1.6-3.5,3.5-3.5H382c1.9,0,3.5,1.6,3.5,3.5S383.9,276.4,382,276.4
	L382,276.4z"/>
<path class="st0" d="M382,313.9H136.8c-1.9,0-3.5-1.6-3.5-3.5s1.6-3.5,3.5-3.5H382c1.9,0,3.5,1.6,3.5,3.5S383.9,313.9,382,313.9
	L382,313.9z"/>
<path class="st2" d="M371,373.6c-9.8,0-17.8-8-17.8-17.8s8-17.8,17.8-17.8c9.8,0,17.8,8,17.8,17.8l0,0
	C388.7,365.6,380.8,373.6,371,373.6z"/>
<path class="st1" d="M381,355l-5-7.4c-0.5-0.7-1.4-0.9-2.1-0.4c-0.7,0.5-0.9,1.4-0.4,2.1l0,0l3.3,4.8h-12.8c-1,0-1.8,0.8-1.8,1.7
	s0.8,1.8,1.7,1.8h12.9l-3.4,5c-0.5,0.7-0.3,1.6,0.4,2.1c0.7,0.5,1.6,0.3,2.1-0.4l5-7.4C381.3,356.3,381.3,355.6,381,355z"/>
<path class="st3" d="M467.1,35.9H1.8C0.8,35.9,0,35,0,34c0-1,0.8-1.7,1.8-1.8h465.3c1,0,1.8,0.8,1.8,1.8
	C468.8,35.1,468,35.9,467.1,35.9z"/>
<ellipse class="st4" cx="20" cy="8.6" rx="8.5" ry="8.6"/>
<ellipse class="st4" cx="49.2" cy="8.6" rx="8.5" ry="8.6"/>
<ellipse class="st4" cx="78.4" cy="8.6" rx="8.5" ry="8.6"/>
<path class="st4" d="M111.7,15.5c-0.3,0-0.5-0.1-0.7-0.3l-5.7-5.8c-0.4-0.4-0.4-1,0-1.4l5.7-5.8c0.4-0.4,1-0.4,1.4,0
	c0.4,0.4,0.4,1,0,1.4l-5,5.1l5,5.1c0.4,0.4,0.4,1,0,1.4C112.2,15.4,112,15.5,111.7,15.5z"/>
<path class="st4" d="M121.3,15.5c-0.3,0-0.5-0.1-0.7-0.3c-0.4-0.4-0.4-1,0-1.4l5-5.1l-5-5.1c-0.4-0.4-0.4-1,0-1.4
	c0.4-0.4,1-0.4,1.4,0l5.7,5.8c0.4,0.4,0.4,1,0,1.4l-5.7,5.8C121.8,15.4,121.6,15.5,121.3,15.5z"/>
<path class="st4" d="M419.8,1h-10.6C408,1,407,2,407,3.2v10.6c0,1.2,1,2.2,2.2,2.2h10.6c1.2,0,2.2-1,2.2-2.2V3.2
	C422,2,421,1,419.8,1z"/>
<path class="st4" d="M393.8,1h-10.6C382,1,381,2,381,3.2v10.6c0,1.2,1,2.2,2.2,2.2h10.6c1.2,0,2.2-1,2.2-2.2V3.2
	C396,2,395,1,393.8,1z"/>
<path class="st4" d="M444.3,1.5h-10.6c-1.2,0-2.2,1-2.2,2.2v10.6c0,1.2,1,2.2,2.2,2.2h10.6c1.2,0,2.2-1,2.2-2.2V3.7
	C446.5,2.5,445.5,1.5,444.3,1.5z"/>
<path class="st4" d="M284.4,5.5h-84.8c-1.5,0-2.7,1.2-2.7,2.7s1.2,2.7,2.7,2.7h84.8c1.5,0,2.7-1.2,2.7-2.7S285.9,5.5,284.4,5.5z"/>
</svg>
